<svg width="39" height="26" viewBox="0 0 39 26" fill="none" xmlns="http://www.w3.org/2000/svg">
<path d="M1.76475 0.546631H36.7648C36.9881 0.550924 37.2084 0.599267 37.4131 0.688805C37.6177 0.778344 37.8028 0.907291 37.9576 1.06843C38.1124 1.22956 38.2339 1.41967 38.3153 1.62784C38.3966 1.83601 38.4363 2.05808 38.4317 2.28155V23.9688C38.4363 24.1923 38.3966 24.4143 38.3153 24.6225C38.2339 24.8307 38.1124 25.0208 37.9576 25.1819C37.8028 25.3431 37.6177 25.472 37.4131 25.5615C37.2084 25.6511 36.9881 25.6994 36.7648 25.7037H1.76475C1.54141 25.6994 1.32112 25.6511 1.11644 25.5615C0.911755 25.472 0.726697 25.3431 0.57188 25.1819C0.417064 25.0208 0.295446 24.8307 0.214092 24.6225C0.132738 24.4143 0.09325 24.1923 0.097759 23.9688V2.28155C0.09325 2.05808 0.132738 1.83601 0.214092 1.62784C0.295446 1.41967 0.417064 1.22956 0.57188 1.06843C0.726697 0.907291 0.911755 0.778344 1.11644 0.688805C1.32112 0.599267 1.54141 0.550924 1.76475 0.546631Z" fill="url(#paint0_linear_6791_5)"/>
<path d="M30.0696 17.7833L29.8176 16.4876H27.0836L26.6346 17.7833H24.3926L27.5996 9.71353C27.6742 9.51342 27.8108 9.34229 27.9895 9.22544C28.1682 9.1086 28.3795 9.05224 28.5927 9.06421H30.3217L32.0436 17.7843L30.0696 17.7833ZM28.8336 11.4353L27.7036 14.6984H29.4696L28.8336 11.4353ZM21.5466 11.5496C21.5466 12.5021 24.5466 12.706 24.5466 14.8963C24.5466 17.0056 22.3316 17.7813 20.8646 17.7813C20.0308 17.7951 19.2035 17.6328 18.4366 17.305L18.7566 15.4137C19.6366 16.1341 22.3057 16.3395 22.3057 15.1958C22.3057 14.0521 19.3307 14.0249 19.3307 11.8476C19.3307 9.53423 21.8647 9.05786 22.9307 9.05786C23.5909 9.0748 24.244 9.199 24.8646 9.42527L24.5576 11.2354C23.6396 10.7231 21.5447 10.6009 21.5447 11.5535L21.5466 11.5496ZM14.9626 17.7833L16.3066 9.06275H18.4576L17.1136 17.7833H14.9626ZM9.80566 17.7833L7.93958 10.2168C8.26923 10.4228 8.58374 10.6522 8.88062 10.9032C9.77763 11.6712 10.4602 12.6587 10.8616 13.7697L11.1046 15.0614L13.1556 9.06421H15.4706L12.0486 17.7843L9.80566 17.7833ZM6.0116 9.30215L5.91162 9.27234L6.0116 9.30215ZM5.79163 9.23717L5.74365 9.22398L5.79163 9.23717ZM6.32068 9.40719L6.19263 9.36224L6.32068 9.40719ZM7.81165 10.1327C7.74498 10.0914 7.67824 10.0515 7.61157 10.0135C7.67557 10.0575 7.74157 10.0956 7.80957 10.1376L7.81165 10.1327ZM7.29761 9.84251C7.23961 9.81249 7.17968 9.78063 7.12268 9.75261C7.17768 9.78563 7.23665 9.81738 7.29565 9.84739L7.29761 9.84251ZM6.76257 9.58552L6.64465 9.53422L6.76257 9.58552Z" fill="#494CA3"/>
<path d="M10.8586 13.7735L10.1346 9.85324C10.0966 9.61696 9.96983 9.40413 9.78027 9.25816C9.59072 9.11219 9.35264 9.04442 9.11462 9.06811H5.72461L5.68457 9.21517C6.86162 9.53274 7.95245 10.1106 8.87659 10.9061C9.77411 11.6743 10.4571 12.6622 10.8586 13.7735Z" fill="#FFC000"/>
<defs>
<linearGradient id="paint0_linear_6791_5" x1="19.2648" y1="25.7037" x2="19.2648" y2="0.546631" gradientUnits="userSpaceOnUse">
<stop stop-color="#E59703"/>
<stop offset="0.231" stop-color="#E59703"/>
<stop offset="0.234" stop-color="white"/>
<stop offset="0.761" stop-color="white"/>
<stop offset="0.766" stop-color="#5457BB"/>
<stop offset="1" stop-color="#5457BB"/>
</linearGradient>
</defs>
</svg>
